<svg xmlns="http://www.w3.org/2000/svg" viewBox="0 0 1962.37 1572.55"><defs><style>.cls-1{fill:#eaeaea;}.cls-2{fill:#f80100;}.cls-3{fill:#e98624;}.cls-4{fill:#fff;}.cls-5{fill:#e0665a;}.cls-6{fill:#a35043;}.cls-7{fill:#ededed;}.cls-8{fill:#cc1933;}.cls-9{fill:#70451e;}.cls-10{fill:#f2743d;}.cls-11{fill:#974138;}.cls-12{fill:#030202;}.cls-13{fill:#472420;}.cls-14{fill:#fee7cf;}.cls-15{fill:#c9d7c9;}.cls-16{fill:#e5dcd8;}.cls-17{fill:#020202;}.cls-18{fill:#fdfcfb;}.cls-19{fill:#efcb35;}.cls-20{fill:#b56b4e;}.cls-21{fill:#a09f9f;}.cls-22{fill:#f77979;}.cls-23{fill:#edb11e;}.cls-24{fill:#a1473a;}.cls-25{fill:#fffefe;}.cls-26{fill:#a0848f;}.cls-27{fill:#52794b;}.cls-28{fill:#f68575;}</style></defs><g id="Layer_2" data-name="Layer 2"><g id="Layer_1-2" data-name="Layer 1"><path class="cls-1" d="M1397.52,640.36c2.68,18.42-.09,36.4-4.46,54.24-1.24,5.06-2.72,10.07-4.08,15.1l-2,5.93a5.54,5.54,0,0,0-.4,3.69c-11.62,20.27-23.3,40.51-34.74,60.89-.77,1.36.28,3.73.48,5.63-2.5,2.13-5.65,3.83-7.39,6.46-9.13,13.78-17.91,27.8-26.8,41.73q-9.54,14.67-19.07,29.33c-2.47,5.4-8.44,9-8.1,15.83-11.1,10.89-17.74,24.25-21.73,39.09-4.75-3.5-9.33-7.27-14.3-10.42a56.41,56.41,0,0,0-12.32-6,11.48,11.48,0,0,0-14.67,6.45c-2.27,5.46.75,12,7.7,13.55,10.18,2.28,20.66,3.28,31,4.82q-1.92,20.19-3.83,40.36c-3.26,10.21-4.16,20.63-4.19,31.35,0,15.84,1.2,31.77-3.09,47.45-1.16,4.24.22,9.19.43,13.82-.51,19.29-1.16,38.57-1.49,57.85-.33,18.62-.12,37.25-.52,55.87-.4,19.08,1.58,38.23-.33,57.51-7.61,1.09-14.08,2-20.53,2.93-5.24-.49-10.48-1.38-15.73-1.39q-74.55-.18-149.11,0c-4.55,0-9.11,1.13-13.66,1.73l-34.32-3.38c-1.49-17.89-3.09-35-4.3-52.15-1.18-16.6-2-33.23-2.89-49.86-.94-17.28-1.89-34.57-2.63-51.86-.7-16.63-.75-33.3-1.81-49.9-1.08-17,1-34.1-1.67-53.52-2.21,3.7-3.56,5.06-3.87,6.62-2.86,14.35-6.79,28.63-8,43.12-3.21,37.8-5.2,75.69-7.75,113.55-.3,4.48-1,8.94-1.62,14l-30.63.93c-3.66-4.7-7.65-9.17-10.92-14.12-19.39-29.41-38.5-59-57.91-88.41q-42.33-64.11-85.06-128c-4.24-6.31-7.77-12.35-6.9-20.16,3-24,11.06-46.5,19.92-68.78a171.55,171.55,0,0,1,49.88-68.86c19.92-16.77,41-31.83,64-44.12,7.24.68,14.72.42,21.67,2.22q28.85,7.47,57.3,16.43c21.46,6.76,42.7,14.25,64,21.43q-17.17,34.86-34.34,69.73c-19.44,39.7-26,82-25.57,125.76,0,1.48,1.34,2.95,2.32,5,4.37-8.48,4.33-8.47,4.42-17a269.82,269.82,0,0,1,22-104.6c14.41-33.72,32.44-65.5,50.6-97.23,14.2-24.8,29.22-49.13,43.67-73.79,2.22-3.78,5.9-7.63,2.87-12.74-18.59-3.71-29.77-3.24-40.94,2.63,11.32,3.9,22.17,0,31.62,3.15,0,2,.49,3.55-.07,4.47q-24.12,40.13-48.43,80.12c-2.93-1.54-5.71-3.53-8.82-4.55-33.39-10.95-66.81-21.86-100.32-32.45-4.29-1.36-7.16-3.05-8-7.51,5.74-3.24,11.25-7,17.23-9.65,35.43-16,71-31.83,106.48-47.75,8.37-3.76,16.66-7.69,25-11.55,10.55,1.09,21.08,2.87,31.65,3.15,70.4,1.86,140.8,3.4,211.2,5C1368.28,639.88,1382.9,640.09,1397.52,640.36Zm-49.62,53c-7.81-.73-12.26-1.39-16.72-1.52-14-.41-26-5.16-35-16.06-4.6-5.58-8.37-11.84-12.66-17.68-1.38-1.88-3.25-3.4-7.28-7.54,0,5.73-.91,8.66.16,10.34,4.6,7.23,9.12,14.71,14.89,21,13,14.1,29.36,20,48.48,17.16C1341.78,698.8,1343.47,696.61,1347.9,693.41Z"/><path class="cls-2" d="M899.52,373.19c3.56-1.35,7.37-4.31,10.64-3.8,35.19,5.5,70.59,6.95,106.13,6.46a10,10,0,0,1,1.94.34,69.75,69.75,0,0,0,12.39,27.45c3.18-1.93,5.65-4.26,8.51-4.95,3.36-.81,7.06-.19,11.39-.19-9.45-15.56-11.22-17-26.75-22.88,2.82-2.39,5.38-5.24,8.52-7.09,15.1-8.87,28.33-20,40.49-32.53,9.92-10.2,21.22-19.16,28.63-31.7,1.12-1.9,4.21-2.64,6.38-3.91q3.75,41.08,7.51,82.15c1.26,3.52,4,5.09,7.49,5.15,7.88.13,15.76.11,23.64.15,10.88,2.36,21.71,5.05,32.68,7,6.39,1.11,13.39,2.22,19-2.28a11.39,11.39,0,0,0,3.61-8.12c-.08-3.56-3.06-5.47-7-4.62l.11.11c.5-4.2-2.37-6.46-5.58-6.63a97.6,97.6,0,0,0-19.56.7c-6.47,1-12.77,3.15-19.14,4.8-.86-8.73,1.65-17.23,5.69-24.26,5.64-9.79,8-20.22,10.42-30.83.09-2.64.17-5.29.26-7.93l-.23.17c2.58-3.77,5.47-7.37,7.71-11.34,7.25-12.89,16-24.53,27.41-34,17-14.26,36.22-22.3,58.94-18.65A76.4,76.4,0,0,1,1295,266.94c1,4.13,4.17,4.93,7.81,4.9l0,0c1.48,3.59,2.41,7.54,4.53,10.7a320.59,320.59,0,0,1,33.59,65.31c14,36.74,17.62,74.1,10.54,113-7.59,41.61-30.35,71.06-67.35,90.4-4.66,2.43-9,5.38-13.56,8.1-4.22.63-8.9-.07-11.9,4.11a18.4,18.4,0,0,1-3.92.36c-30.53,8.4-61.44,13.47-93.31,12.16-17.12-.7-34.3,0-51.45.1-22.74,1.54-45.22-1.63-67.61-4.59-25.69-3.41-51.21-8.14-76.74-12.64-3.73-.65-9-2.34-10.29-5.1-3.44-7.18-9.7-8.41-15.94-10.59-6.9-2.41-13.78-5-20.46-8-22.51-10-44-21.68-63.36-37.05,1.33-5.4,2.44-9.89,3.55-14.37,7-4.45,13.57-5,19.41,2.09a51,51,0,0,0,5.69,5.6,148,148,0,0,0,55.31,30.75c5.78,1.79,11.55,2.91,18.33-1.4,4.29-29.84,11.71-59.95,12.84-90.63-3.08-2.48-4.92-4.51-7.2-5.7-18.83-9.82-37.66-19.64-56.67-29.09-5.39-2.68-8.6-6-8.08-12.2C899,379.82,899.26,376.5,899.52,373.19Z"/><path class="cls-3" d="M734.76,1347.17c-10.29,17.87-19.54,36.43-31,53.48C643.4,1490.09,559.81,1545.59,454,1565.73c-72.19,13.74-143.3,6.72-211.81-21-13.78-5.57-28.43-8.76-41.15-17.42-14.81-10.08-31.25-17.53-45.58-28.65-24-18.63-48.61-36.44-65-62.86-14.66-11.87-22.42-28.73-32.26-44.15C36.59,1357.82,21.91,1321,11.7,1282.38A358.48,358.48,0,0,1,0,1189.48c.18-50.34,9.78-99,28.21-146.17,13.56-34.69,33.89-65.16,54.29-95.77,2.56-3.83,5.59-7.71,9.28-10.36,6.09-4.38,11.11-9.22,14.07-16.27a12.41,12.41,0,0,1,5.4-5.76c15.61-7.86,22.61-25.86,38.91-32.81,15-14.79,33.42-25,51.9-33.88,46.07-22.25,94.4-37.11,145.86-42.21,54.06-5.36,106.29,1.43,157.56,17.82,16.43,5.26,32.28,12.32,48.39,18.56,3.92,5.54,9.62,7.85,16,8.85,3.3,2.22,6.55,4.52,9.91,6.64C692.89,929,756.44,1030.25,767.18,1163.8c.31,3.88-.37,8.1,3.51,10.84.8,13.93-3.32,27.56-3.43,41.23-.18,23.39-5.17,45.69-10.71,68.08-2.2,8.9-3.81,18-5.68,27C741.82,1321.36,739.46,1334.78,734.76,1347.17ZM730.5,1175.6c.52-2.77,1-5.54,1.55-8.31.39-2.35,1.33-4.76,1.06-7-.51-4.34-1.71-8.6-2.62-12.88q-1.85-12.15-3.7-24.29l-2.67-7.55c-.71-4.59-1-9.3-2.18-13.75Q685.34,967,567.28,892.06c-4.89-3.1-10.82-4.56-16.27-6.77-3-6.7-9.19-8.29-15.5-9.7-6.51-3.25-12.84-7-19.57-9.69-72.77-29.29-147.21-34.62-223-13.84C99.9,905-11.7,1109.4,54.81,1301.91c56.1,162.35,226.27,266.48,406.22,225.82,95.71-21.62,168.71-75.92,220.84-158.6,4.16-6.6,9.73-12.88,9.57-21.53,10.59-9.81,15.41-22.13,15.86-36.36,2.81-5.81,6.58-11.35,8.26-17.47,4.32-15.75,7.59-31.78,11.52-47.63,2.38-9.58,5.43-19,2-29l2.44-10.84c2.74-3.39,1.74-6.93.43-10.49q.3-5.65.62-11.31l-2.52-8.44ZM300.42,834.1c-24.43-3.91-73.58,14.08-86.49,30.16,11.44-2.46,19.4-8.67,28.44-12,9.92-3.66,19.7-7.76,29.77-10.93C281.41,838.41,291,836.47,300.42,834.1ZM192.19,874.89c12.92-2.49,12.88-2.56,19-11.49C203.32,864.4,198.23,867.63,192.19,874.89Zm-.56,2.53c-4.82-3.14-6.85-.15-8.48,3.83C188.13,884.72,189.74,880.77,191.63,877.42Z"/><path class="cls-3" d="M1338.07,889.42c.8-1.8,1.09-4.37,2.48-5.28,18.84-12.31,35.65-27.91,57.66-35.17,6.26-2.07,12-5.8,17.92-8.78,33-16.53,73.5-27.34,115.92-33,32-4.25,63.77-3.54,95.64.4a358.27,358.27,0,0,1,96.18,25.58c47.53,20.16,90.31,47.91,126.52,84.91,58,59.23,94.79,129.64,107.31,211.73,12.75,83.53-.55,163.28-40.49,237.92-28.3,52.9-67.18,96.71-116.1,132-44.4,32-92.86,54.31-146.48,64.46-117.27,22.19-223.41-3.13-317.42-77.06-33.29-26.18-60.91-57.64-83.57-93.4-2.82-4.47-5-9.32-7.53-14,6.57-10.41,16.68-16.11,27.59-20.75q4.85,7.58,9.68,15.13c77.91,122.56,223.76,186.81,372,153.73,171.11-38.2,298.06-206.77,266.48-396.94-25.71-154.85-154-279.21-323.15-290.59-56-3.77-109.94,6.74-161.44,29.33-25.73,11.29-49.28,26.22-72.11,42.41C1354.68,906.22,1344,900.62,1338.07,889.42Zm474.59,20.38,3.77,3.81a14.14,14.14,0,0,0,2.11,2.93,11.48,11.48,0,0,0,3.07,1.32c.19-1.6.74-3.26.44-4.75-.18-.9-1.71-1.52-2.63-2.27l-4-4-4-4c-1.37-.85-3.48-2.75-4-2.39-3.3,2.32,0,3.69,1.18,5.31C1810,907.15,1811.31,908.49,1812.66,909.8Zm-27.78-28.36c-3-2.81-5.24-7.35-11.72-3.54l8.86,6.42,15.91,12.11c1.42,1.83,3,3.91,5.17,1.24.36-.43-1.42-2.63-2.21-4Q1792.88,887.53,1784.88,881.44Zm-32.33-19.92-6-.5c1.12,1.13,2.25,2.26,3.37,3.4,6.38,4.71,12.19,10.71,22.67,10.45C1766.79,866.84,1760,863.75,1752.55,861.52Zm-36.2-14.61c4.88,5.09,10.09,9.46,20.35,7.58C1729.84,848.69,1724.22,845.26,1716.35,846.91Zm25.46,10c-.45-.22-1-.72-1.36-.61-.57.19-1,.79-1.48,1.22l2.84.72Z"/><path class="cls-4" d="M898.53,1435.41c11.26-16.88,28.24-27.67,43.4-40.35,8.11-6.79,17-12.59,25.59-18.84,15.68-9.85,32.14-18.56,45.94-31.2,9.28-3,11.88-11.11,14.72-19.06,2.85-1.33,5.66-3.56,8.57-3.7,2.52-.13,5.18,4.47,7.92-.53-2.48-6-5-12.06-7.51-18.13q2.76-10.23,5.5-20.45c1.06-1.54,2.88-3,3-4.66.69-7.89,5.3-12.43,12.1-15.4,18.44-4.93,37.12-9.14,55.28-15,28.57-9.17,57.33-15,87.61-13.1,18.52,1.16,18.58.22,33.44,7.9a110.81,110.81,0,0,0,12,39.09c5.33,10.42,9.39,21.49,14,32.27q-40.36,29.1-80.71,58.2-37.94,27.35-75.89,54.66c-7,5-14.09,8.9-23.56,8.82C1019.47,1435.46,959,1435.53,898.53,1435.41Z"/><path class="cls-5" d="M1295,266.94a76.4,76.4,0,0,0-34.29-15.05c-22.72-3.65-41.89,4.39-58.94,18.65-11.36,9.5-20.16,21.14-27.41,34-2.24,4-5.13,7.57-7.71,11.35.72-6.54.37-13.43,2.4-19.52a221.23,221.23,0,0,1,13.11-31.17c13.74-26.67,33.34-46.16,64.79-50.31,3.93-.52,7.73-1.93,11.59-2.93l8.21.06,15.89,2.57,11.41,1.58,4.37,2c7.19.6,14.39,1.69,21.58,1.71,57.6.12,115.2,0,172.8.06,5.92,0,11.84.68,17.76,1.05l-5.87,4.77c12.43,16.66,17.86,28.11,17.9,41.79.11,37.76-.3,75.53-.49,113.29-8.6-.2-17.21-.52-25.82-.57q-54.66-.3-109.34-.47c-4.26-20-8.45-40.21-23.1-55.8-10.84-11.53-21.59-23.37-33.83-33.27-8.5-6.87-15.45-16.59-27.23-18.94l0,0Z"/><path class="cls-6" d="M1042.66,1283.15l-5.49,20.45q-5.36-4.11-10.73-8.2l.17.22c-1-7.65-2.46-15-12.06-16.24l.19.17-4.06-4.28.13.16q-2.4-6.69-4.82-13.39c-16.5-24.72-32.89-49.52-49.58-74.11-4-5.93-9-11.2-13.58-16.77l.24.24c-.28-5.72-2.61-10.14-8-12.59-.23-7.87-7.56-6.78-11.93-9.45,3.2-3.37,3.29-6.7.63-10.65q-20.58-30.54-40.86-61.28c-22.24-33.81-44-67.94-66.68-101.45-9.23-13.66-16.71-28.65-28.7-40.36-2.09-4.12-3.79-8.48-6.32-12.3Q715.9,824.48,650.4,725.81c-2.47-3.71-5.7-6.9-8.56-10.31-1.71,1.65-3,2.36-3.5,3.42q-34.26,66.26-68.42,132.56c-6.43-1-12.13-3.31-16-8.85,4.24-15.41,13.38-28.49,20.48-42.52,10.78-21.3,22-42.37,33.06-63.55q8.16-15.69,16.27-31.4c18.77-36.38,37.39-72.83,56.34-109.11,12-22.92,24.56-45.51,36.58-68.4,9.15-17.41,17.82-35.08,26.76-52.61,6.63-13,13.36-26,20-38.93l4.89-2c4.9.31,9.88.5,11.64,6.47-2.68,6.69-4.81,13.65-8.1,20Q718.75,563.56,665.39,666.32c-2,3.8-3.26,7.95-5.46,13.39,6.41-.65,11-1,15.55-1.6s9.2-1.55,13.83-2c62.1-5.48,123.75-1.34,185,9.56,22.91,4.08,45.61,9.33,68.35,14.34,6.57,1.45,12.94,2.79,19.47.28.87,4.46,3.74,6.15,8,7.51,33.51,10.59,66.93,21.5,100.32,32.45,3.11,1,5.89,3,8.82,4.54l-8.18,14.53c-21.33-7.18-42.57-14.67-64-21.43q-28.43-9-57.3-16.43c-6.95-1.8-14.43-1.54-21.68-2.22-4.15-6.46-11.2-6.3-17.56-7.67a956.19,956.19,0,0,0-122.11-17.75c-38-3.14-75.7-1.5-113.41,2.64-5.59.62-11,2.81-18,4.68,3.92,6.47,6.79,11.58,10,16.46q47.26,71.48,94.66,142.87c8.07,12.18,16.26,24.29,24.25,36.53,2.09,3.21,4.91,4.15,8.42,4-.87,7.81,2.66,13.85,6.9,20.16q42.82,63.79,85.06,128c19.41,29.4,38.52,59,57.91,88.41,3.27,5,7.26,9.42,10.92,14.12q36.85,56.21,73.74,112.39C1033.16,1270.64,1038,1276.81,1042.66,1283.15Z"/><path class="cls-7" d="M898.53,1435.41c60.47.12,120.94,0,181.41.55,9.47.08,16.53-3.77,23.56-8.82q38-27.3,75.89-54.66,40.36-29.09,80.7-58.2,5.4,8.4,10.79,16.79c.35,6.52,2.66,12.1,7.83,16.3l-5,11.6c-10.91,4.64-21,10.34-27.59,20.75-3,1.13-6.42,1.67-8.92,3.49q-37.56,27.22-74.78,54.93c-3,2.22-5,5.78-7.4,8.72-4.09,2.05-8.48,3.66-12.21,6.22-8.71,6-17.47,12-25.54,18.79-9.13,7.68-19,10.56-31,10.34-32.39-.58-64.8-.27-97.2-.15-9.24,0-18.47.62-27.7,1-11.12-.69-22.23-1.5-33.35-2-5.91-.27-11.92-.67-17.76,0-18.26,2.2-27.18-19.31-21.55-31.27C891.14,1444.58,895.2,1440.17,898.53,1435.41Z"/><path class="cls-8" d="M1110,576c17.15-.08,34.33-.8,51.45-.1,31.87,1.31,62.78-3.76,93.31-12.16,1.46,1.26,2.72,3.19,4.41,3.7,21,6.29,42.24,12,64.32,12.36,25.12.42,50.27-.06,76.71-.16.36,2.69,1.18,5.79,1.11,8.87-.19,7.9-.77,15.78-1.19,23.68.13,1.33.27,2.67.4,4l-3,24.16c-14.62-.27-29.24-.48-43.85-.82-70.4-1.61-140.8-3.15-211.2-5-10.57-.28-21.1-2.06-31.65-3.15C1110.68,612.92,1113.67,594.42,1110,576Z"/><path class="cls-9" d="M899.52,373.19c-.26,3.31-.5,6.63-.77,9.94-.52,6.21,2.69,9.52,8.08,12.2,19,9.45,37.84,19.27,56.67,29.09,2.28,1.19,4.12,3.22,7.2,5.7-1.13,30.68-8.55,60.79-12.84,90.63-6.78,4.31-12.55,3.19-18.33,1.4a148,148,0,0,1-55.31-30.75,51,51,0,0,1-5.69-5.6c-5.84-7.11-12.39-6.54-19.41-2.09l-5.84-.19c-5.12-.19-10.94,1.14-14.64-3.32-2.7-3.26-4-7.68-5.85-11.42l-13.62-3.36.78-10.16c3.44-8,8.36-14.36,16.26-19s14.92-10.78,22.12-16.53c1.82-1.46,2.86-3.89,4.57-6.31-3.66,0-7.37,1.05-8.54-.22-2.19-2.39-6-4.62-5-9l10.42-2.64c-4.22-3.28-8.46-4.26-12.74-5.06-9-1.68-18.06-3.05-27-5-3.65-.78-4.94-3.94-4.6-7.62,10.71-3.2,21.42-6.38,32.11-9.65.23-.07.17-1.1.25-1.68-.8-.93-1.79-2.77-2.38-2.65-9.65,2-19.36,3.93-28.79,6.76-2.5.75-4.1,4.53-6.11,6.92l-3.84,2.55-7.76-2.47L772.25,370l2.79-5.14c7.4-13.23,18.82-21.43,32.78-26.75,7.16-2.73,14.15-3.22,21.14-.16,13.88,6.08,27.85,12,41.43,18.7C880.39,361.54,889.83,367.62,899.52,373.19ZM878.2,437.13c-19.75,7.75-26.27,12.47-33.36,22.26,3.46,2.63,6.35.59,8.88-1.43C862.14,451.22,873.47,448,878.2,437.13Z"/><path class="cls-6" d="M1338.07,889.42c6,11.2,16.61,16.8,27.08,22.61,4.4,4.84,8.42,10.09,13.23,14.46,38.37,34.78,74.5,71.71,107.42,111.69,26.54,32.23,52.16,65.16,73.45,101.21-2.89,6.33-9.47,7.85-14.64,11.21a29.71,29.71,0,0,0-1.71-3.6c-51.56-80.42-113.93-151.51-185.63-214.52-2.86-2.52-6.76-3.85-10.18-5.73l-25.82-23.58c-1.28-2.58-3.67-4.26-5.83-2.29-1.27,1.15-.65,4.39-.87,6.69l.23-.2-3.75,3.5q-12.3,34-24.63,68c-2.48,6.78-4.92,13.52-3.52,20.92l.15-.26c-4.22,1.39-4.46,4.9-4.52,8.51-5.85,13.73-11.65,27.49-17.55,41.2-1.52,3.54-3.31,7-5,10.43-.22-4.62-1.6-9.57-.44-13.81,4.29-15.68,3-31.61,3.09-47.45,0-10.72.93-21.14,4.19-31.35,8.51-6.65,13.83-15.47,17.44-25.49,5.56-15.43,10.85-31,16.91-46.21,3.15-7.91.11-12.4-6.21-16.15-.34-6.82,5.63-10.43,8.1-15.83l7.32,3.66a85.92,85.92,0,0,0,11.75-33c8.89-13.93,17.67-27.95,26.8-41.73,1.74-2.63,4.89-4.33,7.38-6.45a1.38,1.38,0,0,1,1.62,1.43c-6.14,18.16-12.5,36.26-18.33,54.52-4,12.51-10.57,24.25-11.7,37.65,1,1.14,1.93,2.28,2.9,3.41Z"/><path class="cls-9" d="M1245.91,107.91c1.08,3.06,2.34,6.07,3.22,9.18,6.17,22-3.15,37.32-26.3,43.46L1219,164l.42,20c-7,6.86-15.37,9.25-25,7.86l4.86-12.38c-9.57,3.82-17,7.66-25,9.72s-16.59,2.48-24.92,3.61c-15-.9-23.24-8.92-28.12-23.12-9-26-8.34-51.72-.88-77.71l19.73-5.6c-3.05-2.32-5.22-5.34-7.44-5.37-3.61,0-7.24,1.86-10.87,2.94l-.3-6.86a30.44,30.44,0,0,1,2.28-3.24l11.61-6c13.34,4.88,28.06,6.34,39.51,15.92-5-.1-10.23-2.84-14.81,1.67,9.51,4.21,9.51,4.21,16.8,4-.66-1.91-1.29-3.75-1.93-5.59a42.69,42.69,0,0,1,23.68,8.07c-.28,3.81-1.24,7.72-.69,11.41,1,7,6,9.66,12.68,7.47s13.34-4.54,20-6.82Zm-111.26,12.27c-3.08-5.25,1.5-13.17-6.89-18.36-.48,4.92-1,8.52-1.15,12.12-.16,5.86,5.33,4.26,8.31,6,0,6.55-.32,13.13.22,19.63.24,3,2,6.08,6.93,4.17,0-5.11.07-10.27,0-15.42-.09-4.78,4.27-9.71-.17-14.93Zm38.81,30.59c-5.59-.69-12.5,3.08-20.45,11.19C1165.37,163.49,1165.37,163.49,1173.46,150.77Zm59.92-35.62c-12.49,13-12.49,13-15.69,25.56,4.12-2.59,7-4.82,10.28-6.34s6.57-2.2,11.08-3.64C1231.83,126.69,1235.93,121,1233.38,115.15Zm-67.78-14.94c-2.43,6.6-5.32,11.85,3.07,16C1170,110.39,1172.55,105.77,1165.6,100.21Z"/><path class="cls-10" d="M1175,83.74c-11.45-9.58-26.17-11-39.51-15.91L1096,51.13c-2.67-4.24-12-4-7.71-14,10.4-3.22,21.57-.14,32.73,1,2.75,1.61,5.12,2.19,5.72-2.09,1.14-1.6,2.59-3.07,3.36-4.83,12.54-28.81,48-34.44,70.8-29.74a89.46,89.46,0,0,1,30.79,13.06c18.68,12.08,25.83,29.91,25.65,50.51-.11,12.31-4.17,24.61-6.87,36.83-.5,2.24-3,4-4.58,6l-15.23-4-32-12.06A42.69,42.69,0,0,0,1175,83.78Z"/><path class="cls-8" d="M1194.46,191.85c9.58,1.39,18-1,25-7.86,5.85-.93,11.67-2,17.54-2.75a7.55,7.55,0,0,1,8,10.29c-1.67,4.3-4.06,8.32-6.13,12.46q-24.48,3.52-41.08,15.92c.9.73,2.12,2.28,2.66,2.07,12.93-5,25.79-10.15,38.66-15.29,6.82.66,14.09-.34,19.55,5.3-3.86,1-7.66,2.41-11.59,2.93-31.45,4.15-51,23.64-64.79,50.31a221.23,221.23,0,0,0-13.11,31.17c-2,6.09-1.68,13-2.4,19.52l.23-.18c-4.72,2.5-4.64,5.14-.26,7.93-2.46,10.61-4.78,21-10.42,30.83-4,7-6.55,15.53-5.69,24.26-3.58,2-4.63,5.2-4.1,9.08-7.88,0-15.76,0-23.64-.15-3.54-.06-6.23-1.63-7.5-5.14,1-1.65,2.61-3.24,2.77-5,1.76-19.57,3.28-39.17,4.9-58.76.38-4.56.51-9.2,1.42-13.67,2.9-14.3,3-28.66,1.62-43.1a17.7,17.7,0,0,0-.31-2.52c2-11,4.07-22,6-32.49,5.36-4,10.45-7.78,15.53-11.58l5.78-1.72c10.9-7.82,24.12-11.05,35.54-17.85l6.16-4.15Z"/><path class="cls-11" d="M1522.11,380.86c.2-37.77.61-75.54.5-113.3,0-13.68-5.47-25.13-17.9-41.79l5.87-4.77c23.48,7.19,33.54,19.19,35,42,.25,4,.08,8,.08,11.94q0,141.38,0,282.75c0,2-.09,4,0,6,1.21,23.43-9.92,39-30.77,48.42l-16.12-.64c2-2.6,3.59-5.74,6.1-7.69,14.52-11.29,17.69-27.22,17.74-44,.14-57.48-.11-115-.21-172.46Q1522.28,384.06,1522.11,380.86Z"/><path class="cls-12" d="M1013.46,1345c-13.8,12.64-30.26,21.35-45.94,31.2-6.57-.33-13.15-.93-19.74-1q-59.47-.13-119,0c-4,0-7.94.08-11.9,0-20.11-.55-27.25-6.64-32.2-27.37,44-.25,88-.41,132-.82,7.14-.07,14.66,1.72,21.57-2.75q2.12-11.65,4.22-23.3l15.4,7.51c-1.48-4.22-2.2-6.28-2.93-8.35,6.54-.2,13.09-.34,19.62-.61,16-.65,28.13,4.56,33.15,21.28C1008.26,1342.62,1011.48,1343.63,1013.46,1345Z"/><path class="cls-7" d="M942.48,1321l-4.23,23.31c-6.91,4.47-14.43,2.68-21.57,2.75-44,.41-88,.57-132,.82l-50-.67c4.7-12.39,7.06-25.81,16.11-36.27q60.58.13,121.17.28c22.5.09,45,.39,67.51.6Q941,1316.37,942.48,1321Z"/><path class="cls-12" d="M806.65,386.21l3.84-2.55,4.92.3c-.34,3.68,1,6.84,4.6,7.62,9,1.93,18,3.3,27,5,4.28.8,8.52,1.78,12.74,5.06l-10.42,2.64c-1,4.36,2.83,6.59,5,9,1.17,1.27,4.88.22,8.54.22-1.71,2.42-2.75,4.85-4.57,6.31-7.2,5.75-14.21,11.94-22.12,16.53s-12.82,10.95-16.26,19c-9.55-4.6-19.12-9.16-28.64-13.82-3.72-1.82-7.42-2.86-11.38-.82-1.76-6-6.74-6.16-11.65-6.45-1.11-4.8-4-7.27-9.08-6.89l-16-7.78-4.57-3.25-.37-.29L734.7,412c-7.47-14-2-26.33,4.88-38.47,2.43-4.32,6.66-5.82,11.27-6.5l11.61-.77,8.55,2.14a1.25,1.25,0,0,0,1.24,1.54l26.64,13.79C800.67,387.09,802.87,389.12,806.65,386.21Z"/><path class="cls-12" d="M961.37,1483c9.23-.34,18.46-.93,27.7-1,32.4-.12,64.81-.43,97.2.15,11.94.22,21.86-2.66,31-10.34,8.07-6.79,16.83-12.8,25.54-18.79,3.73-2.56,8.12-4.17,12.21-6.22,5,1.44,10.55,2,15,4.5,10.39,5.76,14.22,15.4,12.86,27-1.28,10.86-7.34,18.49-17.61,22a49.44,49.44,0,0,1-15.59,2.38q-78.78.26-157.58.07C977.75,1502.76,966,1498.41,961.37,1483Z"/><path class="cls-12" d="M1354,787.28a1.38,1.38,0,0,0-1.62-1.43c-.19-1.91-1.24-4.28-.47-5.64,11.44-20.38,23.12-40.62,34.74-60.89l52-.51,4.8.58,7.45,3.65.62.36,3.37,3.14c9.33,12,7.8,25.88,7,39.65l-2.62,5.43-.34.74-3,3.49-.78.71-8.49,6.73-.18.09c-9.23.23-18.46.6-27.69.65-17.83.11-35.65,0-53.47.09-3.74,0-8.09-1.08-10.35,3.55Z"/><path class="cls-6" d="M1126,262.05c1.34,14.44,1.28,28.8-1.62,43.1-.91,4.47-1,9.11-1.42,13.67-1.62,19.59-3.14,39.19-4.9,58.76-.16,1.73-1.81,3.32-2.77,5l-7.5-82.16c2.28-13.65,6.8-26.42,14.86-37.8A10.92,10.92,0,0,0,1126,262.05Z"/><path class="cls-13" d="M1188.57,195.89c-11.42,6.8-24.64,10-35.54,17.87a1.72,1.72,0,0,0-2.12-1.68l-1.47-19.29c8.33-1.12,16.85-1.49,24.92-3.6s15.39-5.9,25-9.72l-4.86,12.38.27-.12Z"/><path class="cls-14" d="M1023.77,375.62c15.53,5.85,17.3,7.32,26.75,22.88-4.33,0-8-.62-11.39.19-2.86.69-5.33,3-8.51,4.95a69.75,69.75,0,0,1-12.39-27.45Z"/><path class="cls-12" d="M1096,51.13l39.42,16.7-11.62,6-13.13-1.43c-4.9-4-12.63-2.32-16.52-8.3L1093,59.93Z"/><path class="cls-15" d="M1498.8,611.42l16.12.64c-5.46,5.32-12.41,3.8-18.88,3.84-24.55.14-49.11,0-73.66,0-7.29,0-14.59.18-21.89.27-.13-1.33-.27-2.67-.41-4Z"/><path class="cls-15" d="M1355,787.67c2.26-4.63,6.61-3.53,10.35-3.55,17.82-.12,35.64,0,53.47-.09,9.23,0,18.46-.42,27.69-.65-3.69,5-9.14,4.61-14.38,4.6Q1393.54,787.89,1355,787.67Z"/><path class="cls-14" d="M1239,206.69c-12.87,5.14-25.73,10.31-38.66,15.29-.54.21-1.76-1.34-2.66-2.07q16.56-12.37,41.08-15.92A4.31,4.31,0,0,1,1239,206.69Z"/><path class="cls-15" d="M1438.63,718.81l-52,.51a5.54,5.54,0,0,1,.4-3.69l4-.13c12.3,0,24.6-.14,36.89.28C1431.51,715.9,1435.05,717.75,1438.63,718.81Z"/><path class="cls-13" d="M1121.86,83.94c3.63-1.08,7.26-3,10.87-2.94,2.22,0,4.39,3,7.44,5.37L1120.44,92C1120.91,89.29,1121.39,86.62,1121.86,83.94Z"/><path class="cls-16" d="M1282.66,214.62l-15.89-2.57C1272.3,211.43,1278,210.05,1282.66,214.62Z"/><path class="cls-17" d="M1110.7,72.41l13.13,1.43a31.87,31.87,0,0,0-2.27,3.24Z"/><path class="cls-15" d="M759.2,427.28c5.08-.38,8,2.09,9.08,6.89-1.63.63-3.25,1.29-4.88,1.94Z"/><path class="cls-15" d="M762.46,366.27l-11.61.77C754.44,362.54,758.29,362,762.46,366.27Z"/><path class="cls-15" d="M1446.66,783.29l8.49-6.73C1454.55,781.62,1451.82,784,1446.66,783.29Z"/><path class="cls-16" d="M1450.88,723l-7.45-3.65C1446.79,718.81,1449.5,719.57,1450.88,723Z"/><path class="cls-15" d="M738.65,416.25l4.57,3.25Z"/><path class="cls-15" d="M734.7,412l3.58,3.95Z"/><path class="cls-15" d="M772.25,370a1.25,1.25,0,0,1-1.24-1.54l4-3.61Z"/><path class="cls-16" d="M1126,262.05a10.92,10.92,0,0,1-3.35.54l3-3.06A16.38,16.38,0,0,1,1126,262.05Z"/><path class="cls-18" d="M1298.44,218.18l-4.37-2Z"/><path class="cls-15" d="M1150.91,212.08a1.72,1.72,0,0,1,2.12,1.68l-5.78,1.7Z"/><path class="cls-14" d="M1219,164l3.84-3.42Z"/><path d="M1093,59.93l1.15,4.18C1092.26,63.14,1090.17,62.21,1093,59.93Z"/><path class="cls-16" d="M1391,715.5l-4,.13,2-5.93Q1390,712.6,1391,715.5Z"/><path class="cls-10" d="M1126.77,36.05c-.6,4.28-3,3.7-5.72,2.09C1123,37.46,1124.86,36.75,1126.77,36.05Z"/><path class="cls-16" d="M1454.87,726.54l-3.37-3.14Z"/><path class="cls-16" d="M1459.27,771.62l2.62-5.43Q1460.57,768.91,1459.27,771.62Z"/><path class="cls-16" d="M1455.93,775.85l3-3.49Z"/><path class="cls-16" d="M1326.82,882.86c-1-1.13-1.93-2.27-2.9-3.41C1324.89,880.59,1325.85,881.73,1326.82,882.86Z"/><path class="cls-3" d="M1071.1,759.36l8.18-14.53q24.26-40,48.43-80.11c.56-.92.07-2.48.07-4.47-9.45-3.14-20.3.75-31.62-3.15,11.17-5.87,22.35-6.34,40.94-2.63,3,5.11-.65,9-2.87,12.74-14.45,24.66-29.47,49-43.67,73.79-18.16,31.73-36.19,63.51-50.6,97.23a269.82,269.82,0,0,0-22,104.6c-.09,8.54,0,8.53-4.42,17-1-2-2.3-3.51-2.32-5-.42-43.72,6.13-86.06,25.57-125.76Q1053.85,794.19,1071.1,759.36Z"/><path class="cls-19" d="M1057.79,1263.09l-3.18-29c4.56-.6,9.12-1.72,13.67-1.73q74.55-.17,149.11,0c5.25,0,10.49.9,15.73,1.39.32,3,.66,6.08,1,9.1-14.86-7.68-14.92-6.74-33.44-7.9-30.28-1.89-59,3.93-87.61,13.1C1094.91,1254,1076.23,1258.16,1057.79,1263.09Z"/><path class="cls-20" d="M1347.9,693.41c-4.43,3.2-6.12,5.39-8.09,5.68-19.12,2.83-35.52-3.06-48.48-17.16-5.77-6.27-10.29-13.75-14.89-21-1.07-1.68-.16-4.61-.16-10.34,4,4.14,5.9,5.66,7.28,7.54,4.29,5.84,8.06,12.1,12.66,17.68,9,10.9,21,15.65,35,16.06C1335.64,692,1340.09,692.68,1347.9,693.41Z"/><path class="cls-21" d="M1269.25,918.28c2.12,3.71-.45,6-2.58,8.41-10.35-1.55-20.83-2.55-31-4.83-7-1.55-10-8.09-7.7-13.55a11.48,11.48,0,0,1,14.67-6.45,56.41,56.41,0,0,1,12.32,6C1259.92,911,1264.5,914.78,1269.25,918.28Zm-12.5-.54c-5.27-4.58-9.44-9.44-16.37-9.79-1.61-.08-4.08,1.16-4.71,2.48-.54,1.13.47,4.07,1.66,4.8C1242.89,918.62,1248.82,921,1256.75,917.74Z"/><path class="cls-15" d="M1318.15,834a85.92,85.92,0,0,1-11.75,33l-7.32-3.66Q1308.61,848.69,1318.15,834Z"/><path class="cls-5" d="M1498.8,611.42l-98.72.78c.43-7.9,1-15.78,1.2-23.68.07-3.08-.75-6.18-1.11-8.87-26.44.1-51.59.58-76.71.16-22.08-.36-43.3-6.07-64.32-12.36-1.69-.51-3-2.44-4.41-3.7a18.4,18.4,0,0,0,3.92-.36c7,0,14.26,1.9,20.26-3.54,25.88-2.65,50.84-9.1,75.14-18.19,16.85-6.31,29.08-18.42,39.29-32.6,3-4.09,5.28-9.64,5.36-14.57a414.76,414.76,0,0,0-1.49-43.75c-1.9-21.09-4.81-42.09-7.28-63.13l132.5-.37c.1,57.49.35,115,.21,172.46-.05,16.81-3.22,32.74-17.74,44C1502.39,605.68,1500.81,608.82,1498.8,611.42Z"/><path class="cls-8" d="M1389.93,387.61c2.47,21,5.38,42,7.28,63.13a414.76,414.76,0,0,1,1.49,43.75c-.08,4.93-2.41,10.48-5.36,14.57-10.21,14.18-22.44,26.29-39.29,32.6-24.3,9.09-49.26,15.54-75.14,18.19l-8.36-.58c4.51-2.71,8.9-5.66,13.56-8.09,37-19.34,59.76-48.79,67.35-90.4,7.08-38.87,3.44-76.23-10.54-113a320.59,320.59,0,0,0-33.59-65.31c-2.12-3.16-3-7.11-4.53-10.7,11.78,2.35,18.73,12.07,27.23,18.94,12.24,9.9,23,21.74,33.83,33.27,14.65,15.59,18.84,35.77,23.1,55.8Z"/><path class="cls-22" d="M1146.43,387.84c-.53-3.88.52-7,4.1-9.08,6.37-1.65,12.67-3.85,19.14-4.8a97.6,97.6,0,0,1,19.56-.7c3.21.17,6.08,2.43,5.58,6.63-9.39.92-19.12-1.58-29.28,2.16,11.49,6.71,12.44,6.81,27.92,3.52.42-1.93.83-3.86,1.25-5.79,3.94-.85,6.92,1.06,7,4.62a11.39,11.39,0,0,1-3.61,8.12c-5.59,4.5-12.59,3.39-19,2.28C1168.14,392.89,1157.31,390.2,1146.43,387.84Z"/><path class="cls-8" d="M1270.55,559.27l8.36.58c-6,5.44-13.3,3.55-20.26,3.54C1261.65,559.21,1266.33,559.91,1270.55,559.27Z"/><path class="cls-23" d="M1295,266.94l7.81,4.9C1299.19,271.87,1296.06,271.07,1295,266.94Z"/><path class="cls-24" d="M1166.64,323.67c-4.38-2.79-4.46-5.43.26-7.93C1166.81,318.38,1166.73,321,1166.64,323.67Z"/><path class="cls-4" d="M770.69,1174.64c.66-1.11,1.28-2.26,2-3.34,6.88-10.3,16.2-15,28.68-12.53,13.11,1.72,26.71-1.28,39.42,4.21,22.6-.84,44.91,2.7,67.35,4.31,8.6.62,17.29.14,25.94.16l9,4-.24-.24c.07,10,.24,19.91.21,29.87q-.12,50.84-.36,101.68-1.56,4.53-3.13,9.07c-22.5-.21-45-.51-67.51-.6q-60.59-.24-121.17-.28c1.87-9,3.48-18.05,5.68-27,5.54-22.39,10.53-44.69,10.71-68.08C767.37,1202.2,771.49,1188.57,770.69,1174.64Z"/><path class="cls-4" d="M569.83,1310.67c2.45-17.67,11.73-30.86,27.25-39.17,13.4-7.18,27-14.15,41.11-19.77,30.1-12,60.58-23.09,90.89-34.55,3.43,9.93.38,19.38-2,29-3.93,15.85-7.2,31.88-11.52,47.63-1.68,6.12-5.45,11.66-8.27,17.47Z"/><path class="cls-6" d="M551,885.29c-17.84,34.92-35.55,69.9-53.54,104.74-24.7,47.85-49.63,95.59-74.4,143.41-2.75,5.3-5.06,10.84-7.55,16.28L400.73,1138c11.71-23.12,23.26-46.31,35.16-69.33q48.06-93,96.36-185.85c1.21-2.34,2.18-4.82,3.26-7.24C541.82,877,548,878.59,551,885.29Z"/><path class="cls-7" d="M569.83,1310.67l137.46.57c-.44,14.23-5.26,26.55-15.84,36.37q-59.41-.6-118.83-1.25c-1.17,0-2.31-1.08-4.6-2.22C564.58,1333.26,564.62,1321.91,569.83,1310.67Z"/><path class="cls-4" d="M731.52,1206.33c-8.52-6.08-17.18-12-25.5-18.32a93.62,93.62,0,0,1-11.42-10.76c-3.74-4-6-8.75-3.26-14.29,2-4.18,8.8-5.08,16-1.81,4.76,2.16,9.09,5.22,13.82,7.43,1.29.6,3.32-.39,5-.65l.38-.33c.29,2.55.59,5.1.88,7.65a11,11,0,0,0,2.6.86q1.26,4.2,2.53,8.42c-9.91-6.56-19.74-13.29-29.86-19.54-1.55-1-4.47.32-8.27.72,2,3.79,2.58,6.68,4.37,8.16,9.67,8,19.6,15.73,29.58,23.36.52.4,2.33-.88,3.55-1.39C733.26,1199.4,734.26,1202.94,731.52,1206.33Z"/><path class="cls-14" d="M300.42,834.1c-9.44,2.37-19,4.31-28.28,7.23-10.07,3.17-19.85,7.27-29.77,10.93-9,3.33-17,9.54-28.44,12C226.84,848.18,276,830.19,300.42,834.1Z"/><path class="cls-18" d="M732,1195.84c-1.22.51-3,1.79-3.55,1.39-10-7.63-19.91-15.34-29.58-23.36-1.79-1.48-2.41-4.37-4.37-8.16,3.8-.4,6.72-1.68,8.27-.72,10.12,6.25,19.95,13,29.86,19.54Q732.25,1190.19,732,1195.84Z"/><path class="cls-4" d="M726.19,1167.93c2.64-1.73,2.6-4.06,1.6-6.71-2.75-7.34-6.16-14.54-7.95-22.12-1.92-8.14-4-17,4.27-23.55q1.35,3.78,2.68,7.55c-3.44,1.44-5,4.52-3.89,7.58,2.05,5.74,5,11.16,7.59,16.71.91,4.28,2.11,8.54,2.62,12.88.27,2.26-.67,4.67-1.06,7-1.93-1.66-3.76-1.55-5.48.31Z"/><path class="cls-14" d="M192.19,874.89c6-7.26,11.13-10.49,19-11.49C205.07,872.33,205.11,872.4,192.19,874.89Z"/><path class="cls-14" d="M191.63,877.42c-1.89,3.35-3.5,7.3-8.48,3.83C184.78,877.27,186.81,874.28,191.63,877.42Z"/><path class="cls-25" d="M726.57,1167.6c1.72-1.86,3.55-2,5.48-.31-.52,2.77-1,5.54-1.55,8.3a2.55,2.55,0,0,0-3-.34C727.16,1172.7,726.86,1170.15,726.57,1167.6Z"/><path class="cls-20" d="M727.45,1175.25a2.55,2.55,0,0,1,3,.34l-.45.51A10.56,10.56,0,0,1,727.45,1175.25Z"/><path class="cls-14" d="M1752.56,861.49c7.39,2.26,14.23,5.35,20,13.38-10.48.26-16.29-5.74-22.67-10.45A27.45,27.45,0,0,0,1752.56,861.49Z"/><path class="cls-14" d="M1716.35,846.91c7.87-1.65,13.49,1.78,20.35,7.58C1726.44,856.37,1721.23,852,1716.35,846.91Z"/><path class="cls-14" d="M1797.93,896.43,1782,884.32l2.87-2.92,16,12.26Z"/><path class="cls-14" d="M1782,884.32l-8.86-6.42c6.48-3.81,8.77.73,11.73,3.52C1783.93,882.38,1783,883.35,1782,884.32Z"/><path class="cls-14" d="M1819.42,910.84c.92.75,2.45,1.37,2.63,2.27.3,1.49-.25,3.15-.44,4.75a11.48,11.48,0,0,1-3.07-1.32,14.14,14.14,0,0,1-2.11-2.93Z"/><path class="cls-14" d="M1741.81,856.91v1.33l-2.84-.72c.49-.43.91-1,1.48-1.22C1740.8,856.19,1741.36,856.69,1741.81,856.91Z"/><path class="cls-14" d="M1749.89,864.42c-1.12-1.14-2.25-2.27-3.37-3.4,2,.17,4,.34,6,.49A29.32,29.32,0,0,1,1749.89,864.42Z"/><path class="cls-14" d="M1800.89,893.66c.79,1.38,2.57,3.58,2.21,4-2.19,2.67-3.75.59-5.17-1.24Z"/><path class="cls-14" d="M1808.62,905.84c-1.22-1.66-4.47-3-1.17-5.35.52-.36,2.63,1.54,4,2.39C1810.5,903.86,1809.56,904.85,1808.62,905.84Z"/><path class="cls-14" d="M1811.45,902.88l4,4-2.8,3q-2-2-4-4Z"/><path class="cls-14" d="M1816.43,913.61q-1.87-1.9-3.77-3.8l2.79-2.93,4,4Z"/><path class="cls-18" d="M1013.46,1345c-2-1.39-5.2-2.4-5.75-4.22-5-16.72-17.11-21.93-33.15-21.28-6.53.27-13.08.41-19.61.61-1.69-1-4.15-1.65-4.89-3.15-1.35-2.7-3-6.47-2-8.76s4.93-4.53,7.62-4.57a43.18,43.18,0,0,1,15.38,2.47c12.3,4.59,24.28,10,36.47,14.93,2.56,1,5.49,1.11,11,2.13-6.5-7.9-11.46-13.18-15.53-19.07a238.24,238.24,0,0,1-14.39-23.5c-2.88-5.43-1.83-10.51,1.54-12.53,4.58-2.76,8.79-1.27,12.75,1.67,2.62,2,5.32,3.79,8,5.68l-.13-.16,4.06,4.28-.19-.17c2.41,6.61,5.79,12.49,12.06,16.24l-.17-.22c5.15,14.83,5.15,14.83,1.74,30.56C1025.34,1333.91,1022.74,1342.05,1013.46,1345Z"/><path class="cls-4" d="M1028.18,1326c3.41-15.73,3.41-15.73-1.74-30.56q5.37,4.1,10.73,8.2c2.51,6.07,5,12.15,7.5,18.13-2.74,5-5.4.4-7.92.53C1033.84,1322.4,1031,1324.63,1028.18,1326Z"/><path class="cls-26" d="M1389.93,387.61l-3-7.8q54.68.22,109.34.47c8.61.05,17.22.37,25.82.57.1,2.14.21,4.27.31,6.39Z"/><path class="cls-1" d="M804.07,1145.19l-28.47-2.84c-.54-3.63-1.37-6.75-1.42-9.89-1-58.64,1.6-117.11,9.18-175.31.94-7.23,2.74-14.36,4.14-21.53,12,11.71,19.47,26.7,28.7,40.36,22.67,33.51,44.44,67.64,66.68,101.45q20.24,30.77,40.86,61.28c2.66,4,2.57,7.28-.64,10.64-2.65-.28-5.28-.7-7.92-.81q-49.63-2.05-99.26-4C812,1144.41,808,1145,804.07,1145.19Z"/><path class="cls-19" d="M804.07,1145.19c3.95-.22,7.91-.78,11.85-.63q49.64,1.88,99.26,4c2.64.11,5.27.53,7.92.81,4.38,2.68,11.71,1.59,11.93,9.46q-.48,4.32-.95,8.64c-8.65,0-17.34.46-25.94-.16-22.44-1.61-44.75-5.15-67.35-4.31-12.71-5.49-26.31-2.49-39.42-4.21C802.26,1154.25,803.17,1149.72,804.07,1145.19Z"/><path class="cls-4" d="M942.68,1302.71c10.65-7,21.66-4.3,32.61-1.06,6.16,1.82,12.23,4,21.69,7.12-4-7.46-6.47-11.7-8.5-16.17-2.18-4.79-4.69-9.64-5.65-14.73-2.2-11.71,3.31-17.46,15.27-16.83,2.64.14,5.26.64,7.89,1q2.41,6.71,4.82,13.4c-2.66-1.89-5.36-3.73-8-5.68-4-2.94-8.17-4.43-12.75-1.67-3.37,2-4.42,7.1-1.54,12.53a238.24,238.24,0,0,0,14.39,23.5c4.07,5.89,9,11.17,15.53,19.07-5.49-1-8.42-1.11-11-2.13-12.19-4.89-24.17-10.34-36.47-14.93a43.18,43.18,0,0,0-15.38-2.47c-2.69,0-6.68,2.29-7.62,4.57s.7,6.06,2,8.76c.74,1.5,3.2,2.13,4.89,3.15.72,2.07,1.44,4.13,2.92,8.35l-15.4-7.51q-1.46-4.6-2.92-9.19Q941.13,1307.25,942.68,1302.71Z"/><path class="cls-27" d="M1026.61,1295.62c-6.27-3.75-9.65-9.63-12.06-16.24C1024.15,1280.65,1025.6,1288,1026.61,1295.62Z"/><path class="cls-16" d="M934.08,1167.45q.46-4.32.95-8.64c5.43,2.45,7.76,6.87,8,12.59Z"/><path class="cls-27" d="M1014.74,1279.55l-4.06-4.28Z"/><path class="cls-6" d="M1535.43,1219.06c-3.45,2-6.82,4.12-10.37,5.88q-123.15,61.26-246.35,122.43c-5.17-4.2-7.48-9.78-7.83-16.3l256.82-127.5Q1531.55,1211.31,1535.43,1219.06Z"/><path class="cls-13" d="M878.2,437.13C873.47,448,862.14,451.22,853.72,458c-2.53,2-5.42,4.06-8.88,1.43C851.93,449.6,858.45,444.88,878.2,437.13Z"/><path class="cls-13" d="M815.41,384l-4.92-.3c2-2.39,3.61-6.17,6.11-6.92,9.43-2.83,19.14-4.73,28.79-6.76.59-.12,1.58,1.72,2.38,2.65-.08.58,0,1.61-.25,1.68C836.83,377.58,826.12,380.76,815.41,384Z"/><path class="cls-13" d="M806.65,386.21c-3.78,2.91-6,.88-7.76-2.47Z"/><path class="cls-3" d="M1535.43,1219.06q-3.87-7.75-7.73-15.49a31.44,31.44,0,0,0,.33-5.94c-2.4-18.49,3.26-34.1,16.58-47,5.17-3.36,11.75-4.88,14.64-11.21,6-.29,11.91-.77,17.87-.83,22.26-.19,41.06,12,47.84,32,6,17.62,4.81,40.73-16,57.27-17.35,13.77-40.44,14.68-59.29,2C1544.73,1226.46,1540.16,1222.64,1535.43,1219.06Z"/><path class="cls-3" d="M1347.09,926.75c-22.65,21.64-43.55,44.78-61,70.93-.65,1-2.13,1.41-3.23,2.09-1.4-7.4,1-14.14,3.52-20.92q12.39-34,24.63-68l3.75-3.5-.23.2,6.7-4.4Z"/><path class="cls-15" d="M1321.27,903.17l-6.7,4.4c.22-2.3-.4-5.54.87-6.69C1317.6,898.91,1320,900.59,1321.27,903.17Z"/><path class="cls-3" d="M1283.05,999.51l-4.52,8.5C1278.59,1004.41,1278.83,1000.9,1283.05,999.51Z"/><path class="cls-15" d="M1314.8,907.37l-3.75,3.5Z"/><path class="cls-12" d="M1198.7,91.85l32,12.06c-6.66,2.28-13.31,4.62-20,6.82s-11.65-.49-12.68-7.47C1197.46,99.57,1198.42,95.66,1198.7,91.85Z"/><path class="cls-13" d="M1134.65,120.19l7.23-6.83c4.44,5.22.08,10.15.17,14.93.09,5.15,0,10.31,0,15.42-4.92,1.91-6.69-1.2-6.93-4.17-.54-6.5-.2-13.08-.22-19.63Z"/><path class="cls-13" d="M1173.46,150.77c-8.09,12.72-8.09,12.72-20.45,11.19C1161,153.85,1167.87,150.08,1173.46,150.77Z"/><path class="cls-13" d="M1233.38,115.15c2.55,5.85-1.55,11.54,5.67,15.58-4.51,1.44-8,2.17-11.08,3.64s-6.16,3.75-10.28,6.34C1220.89,128.16,1220.89,128.16,1233.38,115.15Z"/><path class="cls-13" d="M1134.92,119.91c-3-1.71-8.47-.11-8.31-6,.1-3.6.67-7.2,1.15-12.12,8.39,5.19,3.81,13.11,6.89,18.36Z"/><path class="cls-13" d="M1165.6,100.21c7,5.56,4.4,10.18,3.07,16C1160.28,112.06,1163.17,106.81,1165.6,100.21Z"/><path class="cls-13" d="M1175,83.78c.64,1.84,1.27,3.68,1.93,5.59-7.29.25-7.29.25-16.8-4,4.58-4.51,9.86-1.77,14.81-1.67Z"/><path class="cls-28" d="M1188.57,195.89l6.16-4.16Z"/><path class="cls-1" d="M1256.75,917.74c-7.93,3.27-13.86.88-19.42-2.51-1.19-.73-2.2-3.67-1.66-4.8.63-1.32,3.1-2.56,4.71-2.48C1247.31,908.3,1251.48,913.16,1256.75,917.74Z"/><path class="cls-8" d="M1194.7,379.78c-.42,1.93-.83,3.86-1.25,5.79-15.48,3.29-16.43,3.19-27.92-3.52,10.16-3.74,19.89-1.24,29.28-2.16Z"/><path class="cls-3" d="M400.73,1138l14.79,11.71c20.6,19.4,24.8,42,11.87,64-11.22,19.1-33.71,28.78-54.45,23.42-22.31-5.75-37.09-23.36-38.58-45-1.66-23.92,11.64-43.44,33-51.07,5.47-1.95,11.68-2,17.58-2.51C390.19,1138.12,395.47,1138.18,400.73,1138Z"/></g></g></svg>